<svg width="166" height="16" viewBox="0 0 166 16" fill="none" xmlns="http://www.w3.org/2000/svg">
<g opacity="0.5" clip-path="url(#clip0_1061_2026)">
<path d="M8.25276 3.71728V6.06071H3.01763V8.60617H7.49835V10.9496H3.01763V15.8385H0V3.71728H8.25276ZM15.3605 3.71728C17.6519 3.71728 19.3425 5.37385 19.3425 7.43445C19.3425 9.06034 18.2711 10.3749 16.7381 10.8241L16.6508 10.8486L20.3881 15.8385H17.0957L13.8033 11.1516H12.6243V15.8385H9.68786V3.71728H15.3605ZM14.9156 6.08092H12.6243V8.9496H14.9156C15.8499 8.9496 16.5396 8.36374 16.5396 7.51526C16.5396 6.70821 15.8849 6.11214 14.987 6.08211L14.9156 6.08092ZM29.9091 3.71728V6.06071H24.8621V8.60617H29.1818V10.9496H24.8621V13.4951H29.9091V15.8385H21.953V3.71728H29.9091ZM36.2494 3.55566C37.8664 3.55566 39.3344 4.20686 40.322 5.19222L40.4011 5.27284L38.4262 6.96981C37.753 6.30314 36.99 5.9193 36.2269 5.9193C35.5088 5.9193 34.9253 6.24253 34.9253 6.9294C34.9253 9.03041 41.1192 7.9193 41.1192 12.4041C41.1192 14.6668 38.9872 16.0001 36.4738 16.0001C34.1595 16.0001 32.2998 14.8504 31.405 13.3739L31.3572 13.293L33.8033 11.9193C34.297 12.8688 35.262 13.4951 36.4962 13.4951C37.5285 13.4951 38.1569 13.0506 38.1569 12.3839C38.1569 10.2627 31.9406 11.2526 31.9406 7.13142C31.9406 4.70718 34.1175 3.55566 36.2494 3.55566ZM49.2189 3.55566C51.7848 3.55566 54.0114 4.86446 55.1482 6.79053L55.2051 6.889L52.7053 8.08092C52.0695 6.9294 50.7757 6.16172 49.2189 6.16172C47.0042 6.16172 45.3158 7.73748 45.3158 9.77789C45.3158 11.8183 47.0042 13.394 49.2189 13.394C50.7404 13.394 52.0105 12.6609 52.661 11.5528L52.7053 11.4749L55.2051 12.6668C54.0868 14.6466 51.8282 16.0001 49.2189 16.0001C45.4913 16.0001 42.4653 13.2122 42.4653 9.77789C42.4653 6.34354 45.4913 3.55566 49.2189 3.55566ZM63.5969 3.55566C67.4139 3.55566 70.472 6.34354 70.472 9.77789C70.472 13.2122 67.4139 16.0001 63.5969 16.0001C59.8022 16.0001 56.7217 13.2122 56.7217 9.77789C56.7217 6.34354 59.8022 3.55566 63.5969 3.55566ZM63.5969 6.16172C61.3424 6.16172 59.6236 7.73748 59.6236 9.77789C59.6236 11.8183 61.3424 13.394 63.5969 13.394C65.8737 13.394 67.5925 11.8183 67.5925 9.77789C67.5925 7.73748 65.8737 6.16172 63.5969 6.16172ZM83.7941 3.71728L88.1995 15.8385H85.3237L84.5691 13.5557H80.0005L79.2459 15.8385H76.3701L80.7755 3.71728H83.7941ZM82.2848 6.52536L80.7143 11.3334H83.8552L82.2848 6.52536ZM94.6686 3.55566C97.0344 3.55566 99.1047 4.86371 100.182 6.78887L100.237 6.889L97.9115 8.08092C97.2996 6.9294 96.1166 6.16172 94.6686 6.16172C92.6086 6.16172 91.0178 7.73748 91.0178 9.77789C91.0178 11.8183 92.6086 13.394 94.6686 13.394C96.145 13.394 97.3873 12.5821 97.9752 11.3552L98.0134 11.2728H94.6482V9.19203H100.95V9.77789C100.95 13.2122 98.1358 16.0001 94.6686 16.0001C91.1809 16.0001 88.3868 13.2122 88.3868 9.77789C88.3868 6.34354 91.1809 3.55566 94.6686 3.55566ZM110.223 3.71728V6.06071H105.552V8.60617H109.55V10.9496H105.552V13.4951H110.223V15.8385H102.86V3.71728H110.223ZM115.025 3.71728L121.042 11.7375V3.71728H123.714V15.8385H120.94L114.944 7.79809V15.8385H112.251V3.71728H115.025ZM132.028 3.55566C134.413 3.55566 136.484 4.86371 137.542 6.78887L137.596 6.889L135.27 8.08092C134.679 6.9294 133.476 6.16172 132.028 6.16172C129.968 6.16172 128.397 7.73748 128.397 9.77789C128.397 11.8183 129.968 13.394 132.028 13.394C133.442 13.394 134.623 12.6617 135.228 11.5546L135.27 11.4749L137.596 12.6668C136.555 14.6466 134.455 16.0001 132.028 16.0001C128.56 16.0001 125.746 13.2122 125.746 9.77789C125.746 6.34354 128.56 3.55566 132.028 3.55566ZM140.521 3.71728L143.132 7.81829L145.743 3.71728H148.741L144.478 10.1213V15.8385H141.786V10.1415L137.482 3.71728H140.521Z" fill="#919990"/>
<path fill-rule="evenodd" clip-rule="evenodd" d="M157.037 0L158.37 1.48148L156.593 3.11111L158.37 4.74074L157.037 6.22222L153.481 3.11111L157.037 0ZM161.778 0L165.333 3.11111L161.778 6.22222L160.444 4.74074L162.222 3.11111L160.444 1.48148L161.778 0Z" fill="#919990"/>
</g>
<defs>
<clipPath id="clip0_1061_2026">
<rect width="166" height="16" fill="white"/>
</clipPath>
</defs>
</svg>
