<svg width="143" height="32" viewBox="0 0 143 32" fill="none" xmlns="http://www.w3.org/2000/svg">
<path d="M10.3476 5.33333H6.10352e-05V0.0911669H26.3021V5.33333H15.9545V32H10.3476V5.33333Z" fill="black"/>
<path d="M37.4555 32H31.8487V0.0911669H37.4555V32Z" fill="black"/>
<path d="M52.5748 32H46.968V0.0911669H52.6204L63.515 14.9971L73.9082 0.0911669H79.1959V32H73.6347V8.93447L63.5606 23.1111H62.7401L52.5748 9.07123V32Z" fill="black"/>
<path d="M89.6058 32H83.9534L97.4463 0H102.369L115.862 32H109.891L106.563 23.8405H92.9335L89.6058 32ZM104.421 18.5983L99.7711 7.24786L95.0759 18.5983H104.421Z" fill="black"/>
<path d="M126.248 20.4672V32H120.641V0.0911669C121.979 0.0911669 123.422 0.0759724 124.972 0.0455835C126.552 0.0151945 128.132 0 129.713 0C131.961 0 133.906 0.288699 135.547 0.866096C137.219 1.41311 138.51 2.18803 139.422 3.19088C140.334 4.16334 141.002 5.24216 141.428 6.42735C141.853 7.58215 142.066 8.8585 142.066 10.2564C142.066 13.1434 141.033 15.5897 138.966 17.5954C136.93 19.6011 134.074 20.604 130.396 20.604C128.543 20.604 127.16 20.5584 126.248 20.4672ZM130.26 5.24216L126.248 5.33333V15.1339C127.859 15.2858 129.181 15.3618 130.214 15.3618C132.007 15.3618 133.435 14.9212 134.499 14.0399C135.593 13.1586 136.14 11.8822 136.14 10.2108C136.14 6.89839 134.18 5.24216 130.26 5.24216Z" fill="black"/>
</svg>
