<svg width="18" height="21" viewBox="0 0 18 21" fill="none" xmlns="http://www.w3.org/2000/svg">
<path fill-rule="evenodd" clip-rule="evenodd" d="M13.75 1V2.56C16.45 2.81 17.76 4.42 17.96 6.81C17.99 7.09 17.75 7.34 17.46 7.34H0.539985C0.259985 7.34 0.019985 7.1 0.039985 6.81C0.239985 4.42 1.54999 2.81 4.24999 2.56V1C4.24999 0.59 4.58999 0.25 4.99999 0.25C5.40999 0.25 5.74999 0.59 5.74999 1V2.5H12.25V1C12.25 0.59 12.59 0.25 13 0.25C13.41 0.25 13.75 0.59 13.75 1ZM1 8.84H17C17.55 8.84 18 9.29 18 9.84V16C18 19 16.5 21 13 21H5C1.5 21 0 19 0 16V9.84C0 9.29 0.45 8.84 1 8.84ZM6.16 17.2522C6.17667 17.2378 6.19333 17.2233 6.21 17.21C6.39 17.02 6.5 16.76 6.5 16.5C6.5 16.24 6.39 15.98 6.21 15.79L6.06 15.67C6 15.63 5.94 15.6 5.88 15.58C5.82 15.55 5.76 15.53 5.7 15.52C5.5 15.48 5.3 15.5 5.12 15.58C4.99 15.63 4.89 15.7 4.79 15.79C4.61 15.98 4.5 16.24 4.5 16.5C4.5 16.76 4.61 17.02 4.79 17.21C4.89 17.3 4.99 17.37 5.12 17.42C5.24 17.47 5.37 17.5 5.5 17.5C5.56212 17.5 5.61637 17.4921 5.67672 17.4834C5.68437 17.4822 5.69212 17.4811 5.7 17.48C5.76 17.47 5.82 17.45 5.88 17.42C5.94 17.4 6 17.37 6.06 17.33C6.09333 17.31 6.12667 17.2811 6.16 17.2522ZM5.5 14C5.76 14 6.02 13.89 6.21 13.71C6.39 13.52 6.5 13.26 6.5 13C6.5 12.74 6.39 12.48 6.21 12.29C6.12 12.2 6.01 12.13 5.88 12.08C5.51 11.92 5.07 12.01 4.79 12.29C4.61 12.48 4.5 12.74 4.5 13C4.5 13.26 4.61 13.52 4.79 13.71C4.98 13.89 5.24 14 5.5 14ZM9 17.5C9.26 17.5 9.52 17.39 9.71 17.21C9.89 17.02 10 16.76 10 16.5C10 16.24 9.89 15.98 9.71 15.79C9.34 15.42 8.66 15.42 8.29 15.79C8.11 15.98 8 16.24 8 16.5C8 16.76 8.11 17.02 8.29 17.21C8.48 17.39 8.74 17.5 9 17.5ZM9.56 13.83L9.71 13.71C9.89 13.52 10 13.26 10 13C10 12.74 9.89 12.48 9.71 12.29C9.43 12.01 8.99 11.92 8.62 12.08C8.49 12.13 8.38 12.2 8.29 12.29C8.11 12.48 8 12.74 8 13C8 13.26 8.11 13.52 8.29 13.71C8.48 13.89 8.74 14 9 14C9.06212 14 9.11637 13.9921 9.17672 13.9834C9.18437 13.9822 9.19212 13.9811 9.2 13.98C9.26 13.97 9.32 13.95 9.38 13.92C9.44 13.9 9.5 13.87 9.56 13.83ZM12.5 17.5C12.76 17.5 13.02 17.39 13.21 17.21C13.39 17.02 13.5 16.76 13.5 16.5C13.5 16.24 13.39 15.98 13.21 15.79C12.84 15.42 12.16 15.42 11.79 15.79C11.61 15.98 11.5 16.24 11.5 16.5C11.5 16.76 11.61 17.02 11.79 17.21C11.98 17.39 12.24 17.5 12.5 17.5ZM13.06 13.83L13.21 13.71C13.39 13.52 13.5 13.26 13.5 13C13.5 12.74 13.39 12.48 13.21 12.29L13.06 12.17C13 12.13 12.94 12.1 12.88 12.08C12.82 12.05 12.76 12.03 12.7 12.02C12.5 11.98 12.3 12 12.12 12.08C11.99 12.13 11.89 12.2 11.79 12.29C11.61 12.48 11.5 12.74 11.5 13C11.5 13.26 11.61 13.52 11.79 13.71C11.98 13.89 12.24 14 12.5 14C12.56 14 12.63 13.99 12.7 13.98C12.76 13.97 12.82 13.95 12.88 13.92C12.94 13.9 13 13.87 13.06 13.83Z" fill="#919990"/>
</svg>
