<svg width="18" height="18" viewBox="0 0 18 18" fill="none" xmlns="http://www.w3.org/2000/svg">
<path d="M8.99984 0.666626C4.40817 0.666626 0.666504 4.40829 0.666504 8.99996C0.666504 13.5916 4.40817 17.3333 8.99984 17.3333C13.5915 17.3333 17.3332 13.5916 17.3332 8.99996C17.3332 4.40829 13.5915 0.666626 8.99984 0.666626ZM12.6248 11.975C12.5082 12.175 12.2998 12.2833 12.0832 12.2833C11.9748 12.2833 11.8665 12.2583 11.7665 12.1916L9.18317 10.65C8.5415 10.2666 8.0665 9.42496 8.0665 8.68329V5.26663C8.0665 4.92496 8.34984 4.64163 8.6915 4.64163C9.03317 4.64163 9.3165 4.92496 9.3165 5.26663V8.68329C9.3165 8.98329 9.5665 9.42496 9.82484 9.57496L12.4082 11.1166C12.7082 11.2916 12.8082 11.675 12.6248 11.975Z" fill="#919990"/>
</svg>
