<svg width="20" height="18" viewBox="0 0 20 18" fill="none" xmlns="http://www.w3.org/2000/svg">
<path fill-rule="evenodd" clip-rule="evenodd" d="M10 0.429993C13.56 0.429993 16.94 2.51999 19.25 6.14999C20.25 7.71999 20.25 10.28 19.25 11.84C18.09 13.66 16.67 15.09 15.09 16.07C13.51 17.04 11.78 17.56 10 17.56C6.44 17.56 3.06 15.48 0.75 11.84C-0.25 10.27 -0.25 7.71999 0.75 6.14999C1.91 4.32999 3.33 2.89999 4.91 1.91999C6.49 0.949993 8.22 0.429993 10 0.429993ZM5.96 8.99999C5.96 11.23 7.76 13.04 10 13.04C12.24 13.04 14.04 11.23 14.04 8.99999C14.04 6.76999 12.24 4.95999 10 4.95999C7.76 4.95999 5.96 6.76999 5.96 8.99999ZM7.15002 9.00001C7.15002 7.42001 8.43003 6.14001 10 6.14001C11.57 6.14001 12.86 7.43001 12.86 9.00001C12.86 10.57 11.57 11.85 10 11.85C8.43003 11.85 7.15002 10.57 7.15002 9.00001Z" fill="#919990"/>
</svg>
