<svg width="64" height="64" viewBox="0 0 64 64" fill="none" xmlns="http://www.w3.org/2000/svg">
<path d="M63.2794 59.8001L47.8899 44.4137C52.3504 39.0586 54.5747 32.19 54.0999 25.2368C53.6252 18.2835 50.4881 11.7809 45.3411 7.08178C40.1942 2.38262 33.4337 -0.151352 26.4661 0.00699862C19.4985 0.16535 12.8601 3.00383 7.93197 7.93197C3.00383 12.8601 0.16535 19.4985 0.00699862 26.4661C-0.151352 33.4337 2.38262 40.1942 7.08178 45.3411C11.7809 50.4881 18.2835 53.6252 25.2368 54.0999C32.19 54.5747 39.0586 52.3504 44.4137 47.8899L59.8001 63.2794C60.0286 63.5079 60.2998 63.6891 60.5983 63.8127C60.8968 63.9364 61.2167 64 61.5398 64C61.8628 64 62.1828 63.9364 62.4813 63.8127C62.7797 63.6891 63.051 63.5079 63.2794 63.2794C63.5079 63.051 63.6891 62.7797 63.8127 62.4813C63.9364 62.1828 64 61.8628 64 61.5398C64 61.2167 63.9364 60.8968 63.8127 60.5983C63.6891 60.2998 63.5079 60.0286 63.2794 59.8001ZM4.98568 27.1155C4.98568 22.7387 6.28358 18.4601 8.71523 14.8208C11.1469 11.1816 14.6031 8.34517 18.6468 6.67022C22.6905 4.99526 27.1401 4.55702 31.4329 5.4109C35.7256 6.26479 39.6688 8.37245 42.7637 11.4674C45.8586 14.5623 47.9663 18.5054 48.8202 22.7982C49.6741 27.091 49.2358 31.5406 47.5609 35.5843C45.8859 39.628 43.0495 43.0842 39.4102 45.5158C35.771 47.9475 31.4924 49.2454 27.1155 49.2454C21.2483 49.2389 15.6233 46.9053 11.4746 42.7565C7.32581 38.6078 4.99219 32.9827 4.98568 27.1155Z" fill="#FF335F"/>
</svg>
