<svg width="24" height="24" viewBox="0 0 24 24" fill="none" xmlns="http://www.w3.org/2000/svg">
<path d="M3 7H10" stroke="#919990" stroke-width="1.5" stroke-linecap="round" stroke-linejoin="round"/>
<path d="M16 7H21" stroke="#919990" stroke-width="1.5" stroke-linecap="round" stroke-linejoin="round"/>
<path d="M3 17H8" stroke="#919990" stroke-width="1.5" stroke-linecap="round" stroke-linejoin="round"/>
<path d="M14 17H21" stroke="#919990" stroke-width="1.5" stroke-linecap="round" stroke-linejoin="round"/>
<path d="M10 10.5C11.933 10.5 13.5 8.933 13.5 7C13.5 5.067 11.933 3.5 10 3.5C8.067 3.5 6.5 5.067 6.5 7C6.5 8.933 8.067 10.5 10 10.5Z" fill="#919990"/>
<path d="M14 20.5C15.933 20.5 17.5 18.933 17.5 17C17.5 15.067 15.933 13.5 14 13.5C12.067 13.5 10.5 15.067 10.5 17C10.5 18.933 12.067 20.5 14 20.5Z" fill="#919990"/>
</svg>
